<svg xmlns="http://www.w3.org/2000/svg" viewBox="0 0 947.24 751.07"><defs><style>.cls-1{fill:#fff;}.cls-1,.cls-10,.cls-11,.cls-12,.cls-15,.cls-16,.cls-17,.cls-18,.cls-19,.cls-2,.cls-22,.cls-23,.cls-24,.cls-4,.cls-5,.cls-6,.cls-7,.cls-8{fill-rule:evenodd;}.cls-2{fill:#b8cdf3;}.cls-21,.cls-3,.cls-9{fill:none;stroke-linecap:round;stroke-linejoin:round;}.cls-3{stroke:#ef7b58;}.cls-3,.cls-9{stroke-width:8px;}.cls-4{fill:#b74d2f;}.cls-6{fill:#ef7b58;}.cls-7{fill:#4773c3;}.cls-13,.cls-8{fill:#81a4e8;}.cls-9{stroke:#000;}.cls-10{fill:#ffd57e;}.cls-11{fill:#d30101;}.cls-12{fill:#952a2b;}.cls-14,.cls-23{fill:#90cdd6;}.cls-15{fill:#4b0000;}.cls-16,.cls-20{fill:#3c6dc0;}.cls-17{fill:#dc7f64;}.cls-18{fill:#ffd57d;}.cls-19{fill:#ab494a;}.cls-21{stroke:#3c6dc0;stroke-width:12px;}.cls-22{fill:#fd5749;}.cls-24{fill:#482827;}</style></defs><title>Ativo 1</title><g id="Camada_2" data-name="Camada 2"><g id="Camada_1-2" data-name="Camada 1"><g id="SIGN-5"><path class="cls-1" d="M736,235.94,690.8,407.83l204.89,52.06L944,285.39Z"/><g id="HEAD"><path class="cls-2" d="M696.1,391.61a396.77,396.77,0,0,1,42.41-4.31C780,385.36,838.89,391.86,885,418.12c7.71,4.39,13.7,12.22,19.43,19.14l-6,21-206.61-50Z"/><path class="cls-3" d="M800.88,302.54s-3.81-6.48,10.61-8.66c0,0,48.55-4.88,55.46,34.69,0,0,26.06-14.54,33.82,12.9,1.47,5.2-3,22.44-23.76,22.76,0,0,8.5,20.08-14.45,26.17-3.68,1-16.88.91-21.18-11.4"/><path class="cls-3" d="M800.31,324.61s-17.95-21.8-33.37,0c-4.56,6.44-5.4,17.09,7.5,22,0,0-14.16,15.29,0,28.48,0,0,15.45,10.53,25.87-6.57"/><path class="cls-4" d="M733,387.59s96.07,36,152.5,31.05c0,0-29.09-18.18-39.88-22.3l9.48-36.58s22.72-4.13,16.83-17.5c-2-4.5-8.58-5.75-16.83-2,0,0-31.9-11.14-29.25-37.26,0,0-20.57,5.69-27-4.79l-14.71,49.6a23,23,0,0,0,12.7,27.52h0l-2.67,8.32S745.67,385.86,733,387.59Z"/><path class="cls-5" d="M849.18,398.07l-3.67-2.1-1.46,4.85a2.11,2.11,0,1,0,4.06,1.15Z"/><path class="cls-5" d="M796.83,375.33s14.65,3.41,27.69.76a1.1,1.1,0,0,1,1.27.67,1.09,1.09,0,0,1-.48,1.35,21.62,21.62,0,0,1-3.59,1.44A68.2,68.2,0,0,1,795,381.44"/></g><g id="ARM"><path class="cls-6" d="M726,534.25a17.15,17.15,0,0,1,17.2-23.08,49.57,49.57,0,0,1,12.7,2.57,2.09,2.09,0,0,1-1.35,4,45,45,0,0,0-11.62-2.34A13,13,0,0,0,731.65,536c9.23,12.38,32.8,19.76,32.8,19.76a2.09,2.09,0,1,1-1.26,4s-25.05-8-34.9-21.24l-.32-.45c-2.89,2.62-4.42,5.31-4.84,8.05-.7,4.47,1.48,8.93,4.75,13.08,8.92,11.32,26.23,20.22,26.23,20.22a2.09,2.09,0,0,1-1.92,3.72s-17.48-9-27-20.64l-.09.12a16.8,16.8,0,0,0-4.06,9.8c-.2,4.81,2.14,9.29,5.46,13.27,8.91,10.67,25,17.81,25,17.81a2.09,2.09,0,1,1-1.7,3.81s-15.91-7.11-25.51-17.81c-1.68,3.39-.43,7.44,2,11.57,7.27,12.56,25.62,25.51,25.62,25.51a2.09,2.09,0,0,1-2.42,3.42s-4.9-3.49-10.73-8.64l-7.11,43.17a2.09,2.09,0,0,1-4.13-.68l7.47-45.28A2.23,2.23,0,0,1,735,618c-4.7-4.47-9.47-9.71-12.46-14.89C719,597,718,590.88,721.46,586c-3-4.23-4.83-8.88-4.63-13.78a20.82,20.82,0,0,1,5-12.23,2,2,0,0,1,1-.69c-2.94-4.45-4.54-9.18-3.81-13.85.58-3.75,2.64-7.53,6.85-11.11Zm60.27-13.93,2.52.62A37.17,37.17,0,0,1,817.06,557V658a2.09,2.09,0,1,0,4.18,0V557a41.35,41.35,0,0,0-31.46-40.15l-2.52-.62a2.09,2.09,0,0,0-1,4.06Zm-40.84,5s29.14,10.76,44,7.84a2.09,2.09,0,1,0-.8-4.1c-5.55,1.09-13.24.07-20.48-1.49a174.23,174.23,0,0,1-21.22-6.17,2.09,2.09,0,0,0-1.46,3.92Z"/><path class="cls-7" d="M708.54,750.79,718.69,657h125l-12.1,93.77Z"/></g><g id="SIGN"><path class="cls-8" d="M751.79,523.09l21.28-94.32,33.16,7.48-21,93.21c-5.08.28-11.24-.64-17.1-1.9C761.77,526.19,755.78,524.39,751.79,523.09Z"/><path class="cls-8" d="M737.5,238.43,692.82,408.36a2.09,2.09,0,0,1-4.05-1.06L734,235.4a2.09,2.09,0,0,1,2.49-1.5l209.16,48.15a2.09,2.09,0,0,1-.94,4.07Z"/><path class="cls-8" d="M895.48,457.25l47.65-173.72a2.09,2.09,0,0,1,4,1.11L899,460.33a2.09,2.09,0,0,1-2.53,1.47L690.29,409.86a2.09,2.09,0,0,1,1-4.06Z"/></g></g><g id="SIGN-4"><path class="cls-1" d="M262.42,665.78l1.49-116.38,31.51-17.28S293.59,463,311.36,472c0,0,6.53,16.69,9.3,25.35,0,0,8.06,20.95,16.5,33.52,0,0,14.75,29.89,17.2,89.54v44.08Z"/><path class="cls-9" d="M261.88,615.88c.71-.35.59,41.47.36,48.57"/><path class="cls-1" d="M151.57,4.69,443.43,29.46,421.52,280.29l-290.7-32.15Z"/><g id="HEAD1"><path class="cls-10" d="M241.82,88.24a2,2,0,0,1-.58-.16,2.11,2.11,0,0,1-1.08-2.78l2.64-6a38.18,38.18,0,0,1,30.36-22.47l17.07-2.05a40.93,40.93,0,0,1,44.59,30.79l20.47,82.68a36.32,36.32,0,0,1,9.5-1.86c4.45-.21,9.21.69,12.77,4,3.26,3,5.63,8.06,5.57,16.48a58.48,58.48,0,0,1,17.22-4.44c7.45-.58,15.22,1,20.55,7.31,4,4.81,6.74,12.5,6.55,24.49a2.11,2.11,0,0,1-2.14,2.07,1.89,1.89,0,0,1-.72-.14c0,.37,0,.73,0,1.1l-69.29-37.39L204.19,177l-53.77,15.69c0,.38,0,.76,0,1.14a2.11,2.11,0,1,1-4.21-.16c.75-20.89,7.45-33.47,16.29-40.91,8.31-7,18.59-9.5,28-9.92a79.15,79.15,0,0,1,19.85,1.78c1.68.13,3.12.28,4.24.41l23.61-46A2.14,2.14,0,0,1,239.41,98l2.29-9.36Z"/><path class="cls-11" d="M136.91,200.08l67-20.62a2.11,2.11,0,1,0-1.24-4l-67,20.62a2.11,2.11,0,0,0,1.24,4Z"/><path class="cls-11" d="M429.08,217.3S396.79,197.83,373.45,186c-10.36-5.24-19.06-8.92-22.66-9a2.11,2.11,0,0,0-.14,4.22c3.33.11,11.3,3.73,20.9,8.59,23.22,11.76,55.35,31.13,55.35,31.13a2.11,2.11,0,1,0,2.18-3.61Z"/><path class="cls-4" d="M199.82,176.57s65.71,77.83,160.42,3.22a250.72,250.72,0,0,0-32.65-10.62l3.14-56.86c7.24.46,17.3-17,3.32-24.28-4.29-2.25-13.11,2.73-16,14.72,0,0-30.91-.49-46.22-29.75,0,0-14.66,15.33-31.88,12.24-3.2,12-6.63,23.61-5.44,42.39a20.48,20.48,0,0,0,16.69,19c4,.78,7.16,1.38,7.16,1.38l-.17,14.41S223.4,167.47,199.82,176.57Z"/><path class="cls-12" d="M331.56,170.18l-3.91-1.09-1,9.91a2.11,2.11,0,0,0,4.21.32Z"/><path class="cls-12" d="M258.33,148.05c-2.7.11,8.72.35,23.64-.73a1.45,1.45,0,0,1,1.53,1.13,1.47,1.47,0,0,1-.89,1.69l-24.31,9.4Z"/></g><rect class="cls-13" x="107.85" y="425.27" width="353.5" height="35.36" transform="translate(-172.43 704.33) rotate(-87.04)"/><path class="cls-8" d="M418.76,278.25,439.71,25.71a3.17,3.17,0,1,1,6.31.52L424.8,282a3.17,3.17,0,0,1-3.49,2.89l-290.11-31a3.16,3.16,0,0,1,.67-6.29Z"/><path class="cls-8" d="M152.83,6.56,134.69,251a3.16,3.16,0,1,1-6.31-.47L146.75,2.93A3.17,3.17,0,0,1,150.16,0l293,22.8a3.16,3.16,0,0,1-.49,6.31Z"/><path class="cls-1" d="M274.87,505.52s-14.23-7.14-14.6,6.28l8.53,14.44s-13.07-2.1-12.84,8c0,0,.82,4.78,6.91,13.44l2.19,3.53s-16.41-6.45-13.57,10l8,10.92s-15.06-1.08-12.37,8.68l17.33,26.53s6.72-2.41,6.42-8.06l-7-20.63s14,6,13.52-6.89l-6.5-11.77s14.27-3.62,9.66-14.43l-5.62-12.08s15-.14,9.73-12.32Z"/><path class="cls-5" d="M276.66,504.41a10.14,10.14,0,1,0-17.25,10.68l9.77,15.79a2.12,2.12,0,0,0,2.91.68,2.1,2.1,0,0,0,.68-2.9L263,512.87a5.92,5.92,0,1,1,10.07-6.24,2.11,2.11,0,1,0,3.59-2.22Z"/><path class="cls-5" d="M269.18,530.88a10.14,10.14,0,1,0,17.25-10.68l-9.77-15.79a2.11,2.11,0,0,0-3.59,2.22l9.78,15.79a5.93,5.93,0,1,1-10.08,6.24,2.11,2.11,0,1,0-3.59,2.22Z"/><path class="cls-5" d="M272.62,528.94a10.14,10.14,0,1,0-17.25,10.67l9.78,15.79a2.11,2.11,0,0,0,3.58-2.22L259,537.39A5.92,5.92,0,0,1,269,531.16a2.11,2.11,0,0,0,3.59-2.22Z"/><path class="cls-5" d="M265.15,555.4a10.14,10.14,0,1,0,17.24-10.68l-9.77-15.78a2.11,2.11,0,1,0-3.59,2.22L278.81,547a5.92,5.92,0,0,1-10.08,6.23,2.11,2.11,0,1,0-3.58,2.22Z"/><path class="cls-5" d="M268.15,551.74a10.14,10.14,0,1,0-17.25,10.67s9.2,14.38,9.2,14.38a2.11,2.11,0,0,0,3.55-2.28l-9.19-14.35a5.93,5.93,0,0,1,10.1-6.2,2.11,2.11,0,0,0,3.59-2.22Z"/><path class="cls-5" d="M260.08,576.76a13.22,13.22,0,0,0,7.91,5.66,8.67,8.67,0,0,0,6.64-.93,10.14,10.14,0,0,0,3.29-14l-9.77-15.79a2.11,2.11,0,1,0-3.59,2.22l9.77,15.79a5.92,5.92,0,0,1-1.92,8.15,4.53,4.53,0,0,1-3.47.41,8.79,8.79,0,0,1-5.27-3.77,2.11,2.11,0,0,0-3.59,2.22Z"/><path class="cls-5" d="M263.61,574.45c1.75,2.3,4.19,7.55,5.81,12.11a2.11,2.11,0,1,1-4,1.42c-1.49-4.17-3.66-9-5.24-11l-.13-.18A5.92,5.92,0,1,0,250,583a2.11,2.11,0,0,1-3.59,2.22,10.14,10.14,0,0,1,17.19-10.77Z"/><path class="cls-5" d="M246.42,585.22,256.19,601c1.52,2.45,3.26,5.37,5.09,7s3.88,2.1,5.92,1a7.56,7.56,0,0,0,3.21-4.42c1.38-4.07,1.52-10.95-1-18a2.11,2.11,0,1,0-4,1.42,27,27,0,0,1,1.37,13.73,9.75,9.75,0,0,1-.88,2.63,2,2,0,0,1-.71.91.64.64,0,0,1-.65-.09,5.34,5.34,0,0,1-1.19-1,39.87,39.87,0,0,1-3.61-5.34L250,583a2.1,2.1,0,0,0-2.9-.69A2.12,2.12,0,0,0,246.42,585.22Z"/><path class="cls-5" d="M299,561.9c-7.32-16.09-5.85-36.42-4.6-53.62.71-9.72,1.64-19.48,3.91-29a17.09,17.09,0,0,1,3.24-7.14,6.4,6.4,0,0,1,5.83-2.25,9.13,9.13,0,0,1,5.42,2.9,22.43,22.43,0,0,1,4.18,7c4,9.8,5.75,19.67,10.88,29.14,6.58,12.17,13.76,24,17.95,37.3,11.54,36.49,11.15,88.48,10.36,126.29a2.11,2.11,0,1,1-4.21-.09c.77-37.4,1.24-88.83-10.17-124.93-4.11-13-11.19-24.62-17.64-36.56-5.2-9.62-7.06-19.62-11.08-29.57a20.56,20.56,0,0,0-2.64-4.86,5.66,5.66,0,0,0-3.58-2.43,2.75,2.75,0,0,0-2.66,1.54,15.15,15.15,0,0,0-1.78,4.65c-2.21,9.28-3.11,18.82-3.8,28.31-1.19,16.25-2.75,35.43,3.87,50.76l.18-.1a10.13,10.13,0,0,1,7.76-1.06c4.69,1.35,5.8,5.82,4.63,9.33a6.44,6.44,0,0,1-5.21,4.61,6.61,6.61,0,0,1-5-1.75,15.48,15.48,0,0,1-2.87-3.12c-.33-.48-.65-1-1-1.48a34.87,34.87,0,0,0-2.85,3.25,25.75,25.75,0,0,0-2.52,3.85,15.19,15.19,0,0,0-.45,1.68,2.79,2.79,0,0,1-.6,1.05,2,2,0,0,1-2.36.53,2.24,2.24,0,0,1-.89-3.51,12.59,12.59,0,0,1,.57-1.71,29.59,29.59,0,0,1,2.93-4.49A36.24,36.24,0,0,1,299,561.9Zm5.36,1.24q.51.87,1.08,1.71a11.36,11.36,0,0,0,2.1,2.28,2.71,2.71,0,0,0,1.86.81c.84-.09,1.36-.9,1.65-1.75a2.91,2.91,0,0,0-1.8-4A6.14,6.14,0,0,0,304.31,563.14Z"/><rect class="cls-14" x="257.64" y="657.95" width="112.83" height="92.72"/></g><g id="SIGN-3"><g id="Sign-2" data-name="Sign"><path class="cls-1" d="M361.75,146.05,328.43,381l266.8,36.68,27.56-233.14S362,149.76,361.75,146.05Z"/><g id="HEAD2"><path class="cls-5" d="M590.93,405.71a17.44,17.44,0,0,0-4.42-2.91c-4.88-2.09-10.09-1.23-14.65,1.23a44.56,44.56,0,0,0-4.27,2.64,15.38,15.38,0,0,1-1.37.77,3.16,3.16,0,0,1-3.74,1.29,3.32,3.32,0,0,1-2-4.52,3.92,3.92,0,0,1,1.31-1.54c.53-.38,1.67-.84,2.16-1.18a47.92,47.92,0,0,1,4.89-3c6.26-3.39,13.45-4.36,20.15-1.5a18.94,18.94,0,0,1,2.83,1.55Zm-42-6.8a3.75,3.75,0,1,1-3.74,3.75A3.75,3.75,0,0,1,549,398.91Zm-57.17,1.58h0c.36-.54,1.25-1.39,1.58-1.89a52.93,52.93,0,0,1,3.48-4.57c4.62-5.42,11-8.92,18.25-8.66,4,.15,7.95,1.89,11.83,3.31,2.86,1.05,5.71,2,8.71.87,4.45-1.63,7.46-5.82,10.89-9.12,4.53-4.33,9.54-7.45,17.12-5.52a3.16,3.16,0,0,1-1.56,6.13c-5-1.27-8.2,1.11-11.18,4-4.07,3.89-7.84,8.57-13.09,10.49-4.49,1.64-8.78.7-13.06-.86-3.26-1.2-6.49-2.81-9.88-2.93-5.3-.19-9.85,2.49-13.22,6.43a42,42,0,0,0-2.58,3.35ZM445.68,382.8a3.75,3.75,0,1,1-3.74,3.75A3.74,3.74,0,0,1,445.68,382.8ZM338.49,338.27c32.51-1.56,64.84-2,96.33,2.73a2.11,2.11,0,1,1-.64,4.17c-27-4.07-54.58-4.27-82.39-3.24a21.49,21.49,0,0,1,10,10.18c1.7,3.68,1.9,7.94,2.38,12.05.35,3,.82,6,3.16,8.17,3.45,3.23,8.55,4,13,5.61,4.78,1.69,9,4,11.33,8.91L382,385.53a21.78,21.78,0,0,0-3.72-1.62c-5.3-1.88-11.18-3.15-15.26-7-3.5-3.26-4.59-7.53-5.13-12.05-.4-3.44-.42-7-1.84-10.14-2.22-4.81-6.67-7.67-11.7-8.89a43.6,43.6,0,0,0-4.93-.91c-.32,0-1-.2-1.53-.34a3.06,3.06,0,0,1-1.08.11l.29-2.16-3.63.18a2.11,2.11,0,0,1-.21-4.22l4.42-.22,0-.2h.09A5.39,5.39,0,0,1,338.49,338.27Zm246.59,39.07a3.74,3.74,0,1,1-3.75,3.74A3.74,3.74,0,0,1,585.08,377.34Zm-67.76-4.54a3.75,3.75,0,1,1-3.75,3.74A3.74,3.74,0,0,1,517.32,372.8ZM343.87,371a3.75,3.75,0,1,1-3.74,3.74A3.73,3.73,0,0,1,343.87,371Zm172.56-20.64c32,7,57.74,16.9,81.58,27.69a2.11,2.11,0,0,0,1.74-3.84c-24.08-10.9-50.08-20.91-82.42-28a2.11,2.11,0,0,0-.9,4.13ZM400.85,374.8a3.17,3.17,0,0,1-3.16,2.39,3.26,3.26,0,0,1-2.55-1.19,3.2,3.2,0,0,1-.75-2.48,3.88,3.88,0,0,1,.77-1.88c.38-.52,1.32-1.31,1.68-1.79a51.84,51.84,0,0,1,3.71-4.39c4.9-5.17,11.43-8.33,18.68-7.69,4,.36,7.84,2.3,11.64,3.92,2.8,1.2,5.6,2.26,8.66,1.32,4.52-1.4,7.74-5.43,11.35-8.53,4.74-4.09,9.92-6.94,17.37-4.63a3.17,3.17,0,0,1-1.87,6c-4.92-1.53-8.24.67-11.37,3.37-4.26,3.67-8.28,8.14-13.62,9.79-4.56,1.4-8.81.24-13-1.54-3.19-1.36-6.33-3.15-9.71-3.45-5.28-.46-10,2-13.54,5.74a45.82,45.82,0,0,0-3.24,3.83C401.71,373.89,401.25,374.39,400.85,374.8Zm81.22-49.69a3.17,3.17,0,0,1-3.63-1.59,3.21,3.21,0,0,1-.2-2.8,3.18,3.18,0,0,1,1.8-1.87,3.78,3.78,0,0,1,2-.24c.64.08,1.8.51,2.39.59a47.2,47.2,0,0,1,5.64,1.1c6.9,1.75,12.84,5.91,15.82,12.56,1.66,3.69,1.81,8,2.25,12.07.33,3,.76,6,3.08,8.2,3.42,3.27,8.51,4.11,13,5.75,5.88,2.14,10.9,5.27,12.51,12.91a3.16,3.16,0,0,1-6.19,1.31c-1.07-5-4.61-6.86-8.49-8.28-5.28-1.93-11.14-3.25-15.18-7.11-3.46-3.3-4.51-7.58-5-12.11-.37-3.45-.35-7.06-1.73-10.16-2.17-4.83-6.59-7.73-11.61-9a43.61,43.61,0,0,0-4.92-1A14.35,14.35,0,0,1,482.07,325.11Zm-96.32,22.55a3.75,3.75,0,1,1-3.74,3.75A3.75,3.75,0,0,1,385.75,347.66Z"/><path class="cls-15" d="M427,339.89s21.59,44.53,39.62,47.19c0,0,14.52,6.41,73.81-35.23l-23.75-6L525,302.79s29.17-7.49,22.67-25.68c-1.24-3.47-7.86-10.42-16.79-2.5,0,0,1.55-8.38,3.41-18.36a31.39,31.39,0,0,0-27-36.9l-21.8-2.69a41.93,41.93,0,0,0-46.74,36.5c-3,24.33-6.49,52.62-8,65A20.69,20.69,0,0,0,434,332.05c2.42,3.64,5.78,7.68,9.9,9.72Z"/><path class="cls-16" d="M439.54,247.6s18.64,16.35,46.29-5.21A42.35,42.35,0,0,0,504.12,275s17.11,21.23-2.93,31.75c0,0-12.54,11.1-29.68-5.16,0,0-18.33-14.93-32,0,0,0-5.24,2.75-6-6.08l-3.1,16.6a29.56,29.56,0,0,0,24.51,34.66,59,59,0,0,0,16.58.07c5.56-.74,38.73-3.57,54.4-47.45,0,0,4.27-21.51,8.32-41.89a33.34,33.34,0,0,0-29.17-39.65l-21.55-2.31a39.74,39.74,0,0,0-34,13.2A47.47,47.47,0,0,0,439.54,247.6Z"/></g><path class="cls-16" d="M486.16,404.08l-37.67-3.8,7.68,228.52,37.18-1.25Z"/><path class="cls-16" d="M332.17,379.29,592.59,414a3.16,3.16,0,1,1-.84,6.27L328.2,385.15a3.15,3.15,0,0,1-2.72-3.56l31.62-237.1a3.16,3.16,0,0,1,6.27.83Z"/><path class="cls-16" d="M618.62,186,359.78,148a3.17,3.17,0,0,1,.92-6.27l261.91,38.39a3.16,3.16,0,0,1,2.68,3.53l-30,233.85a3.17,3.17,0,0,1-6.28-.81Z"/></g><g id="HAND"><path class="cls-4" d="M405.28,676.52s-1.78-167.68,24.65-187.43c0,0,18.54-20.93,27.44-31.94,0,0,18.57-13.31,15.1,11.94,0,0-1.76,24.27-15.1,38.86,0,0,10.23,9-3.2,48.65L456.4,626l36.46-.49-2.53-42.75s-9.95-7.13,0-18.44c0,0-12.11-8.31,0-17.79,0,0-15.52-5.58-4.78-19.29,0,0-21.13-9.36,0-26.62,0,0,15.15-15,21.69-7.16,2.72,3.25,4.84,8.91-1.86,16.27,0,0,13.72,2.09,6.09,19.9,2.48-1.25,13.67,7.08,1.92,19.53,0,0,19.56,4.91-6.15,27L511,677.05Z"/><path class="cls-17" d="M509.71,511.68a10,10,0,0,0-4.27-1.89l-19.85,17.45c-2.63,3.37-3.68,6-3.73,8.52Z"/><path class="cls-17" d="M515.5,531.45a5.86,5.86,0,0,0-4-2.05s-.53.48-.8.74a195.12,195.12,0,0,1-17.1,14l-3.13,2.17c-2.48,2.3-4.55,4.44-5.29,7.29a89.79,89.79,0,0,0,10.84-6,203.53,203.53,0,0,0,18.8-15.49Z"/><path class="cls-17" d="M490.55,586.86l-.26-3.94,1-.07a36.77,36.77,0,0,0,7.44-1.53,27.76,27.76,0,0,0,8-4.55l.56-.44.22,5.14-.93.63a28.64,28.64,0,0,1-7.08,3.36,31.82,31.82,0,0,1-8,1.3C491.13,586.77,490.55,586.86,490.55,586.86Z"/><path class="cls-17" d="M517.32,551.21a13.52,13.52,0,0,0-4.16-2.08l-1,.78c-5.27,4-13.68,10.15-20.9,14l-.66.36c-1.64,1.18-3.38,4.07-4.19,6.53l1-.44c9.12-3.6,22.78-13.7,29.09-18.56Z"/><path class="cls-17" d="M454.15,556.3l.48,15.32c-1.15,3.39-2.92,5.59-5.08,8.47a12.09,12.09,0,0,1-4.26,3.74,5.4,5.4,0,0,1-4.74,0,6.18,6.18,0,0,1-2.9-2.66,6.62,6.62,0,0,1-.29-5.16,18.44,18.44,0,0,1,7.19-9,17.29,17.29,0,0,1,7-2c.36-1.25.71-2.51,1.08-3.74S453.77,557.37,454.15,556.3Zm-3.91,13.15a12.75,12.75,0,0,0-3.65,1.31,13.38,13.38,0,0,0-5.19,6.51,2.54,2.54,0,0,0,0,2,2.07,2.07,0,0,0,1,.83,1.62,1.62,0,0,0,1.6-.29,9.09,9.09,0,0,0,2.21-2.21A28.91,28.91,0,0,0,450.24,569.45Z"/><path class="cls-6" d="M402.34,750.78l-.86-74.17,111.53.47,1.7,73.7Z"/></g></g><g id="SIGN-2-2" data-name="SIGN-2"><g id="SIGN1"><path class="cls-1" d="M6.12,264.36,241.71,208l37,200.13L49.91,462.84Z"/><path class="cls-18" d="M41.71,418.07s26.89-25,52.39-38.32c0,0,100.65-34.45,181.68,6.16l4.16,21-227.53,54Z"/><path class="cls-17" d="M62.15,439.55l5.73,9.93a3.16,3.16,0,1,1-5.48,3.16l-7.59-13.15a3.17,3.17,0,0,1-.24-2.64A3.13,3.13,0,0,1,56.43,435l14.2-5.41a3.17,3.17,0,1,1,2.25,5.92ZM118,443a3.1,3.1,0,0,1-.44-1.92A3.17,3.17,0,0,1,121,438.2l11.43,1.07-.76-11.43a3.17,3.17,0,0,1,6.32-.43l.71,10.67ZM94.61,431.4l10.44,4.73a3.16,3.16,0,1,1-2.61,5.76l-13.82-6.26A3.15,3.15,0,0,1,87.29,431l8.39-12.67a3.17,3.17,0,0,1,5.28,3.5Zm72-14.6-10.2-5.22a3.16,3.16,0,1,1,2.88-5.63l13.51,6.91a3.13,3.13,0,0,1,1.64,2.08,3.19,3.19,0,0,1-.53,2.61l-9,12.25a3.17,3.17,0,0,1-5.11-3.74ZM198.46,424l-4.54-9.63a3.17,3.17,0,0,1,2-4.39l14.61-4.2a3.16,3.16,0,0,1,1.75,6.08l-11,3.17,3.52,7.48ZM51.58,409.36,57.22,413l4.53-10.53a3.16,3.16,0,1,1,5.81,2.5l-6,13.94a3.14,3.14,0,0,1-2,1.78,3.2,3.2,0,0,1-2.63-.35l-10.39-6.61Q49.08,411.46,51.58,409.36ZM124.23,408l9.42-6.52a3.16,3.16,0,1,1,3.6,5.2l-12.47,8.64a3.16,3.16,0,0,1-4.66-1.24l-6.56-13.7a3.16,3.16,0,0,1,5.71-2.73ZM83.82,386a3.18,3.18,0,0,1,2.16.69l11.85,9.49A3.18,3.18,0,0,1,99,398.58,3.14,3.14,0,0,1,98,401L86.7,411.22a3.16,3.16,0,0,1-4.24-4.69l8.51-7.7-9-7.17a3.17,3.17,0,0,1-.78-4Zm154.93,18.56L249.62,401a3.16,3.16,0,1,1,2,6l-14.39,4.81a3.18,3.18,0,0,1-2.64-.3,3.15,3.15,0,0,1-1.49-2.2l-2.45-15a3.16,3.16,0,1,1,6.24-1Zm-57.13-18.88-9.72,6.08a3.16,3.16,0,0,1-3.35-5.37l12.87-8.05a3.16,3.16,0,0,1,4.59,1.46l5.9,14a3.16,3.16,0,0,1-5.83,2.46Zm82.66-4.87c3.25,1.27,5.65,2.3,7.07,2.94l.61,3a3.15,3.15,0,0,1-3,3.79l-15.18.67a3.16,3.16,0,0,1-.28-6.32l11.47-.51Zm-48.51-5.48.22,11.46a3.16,3.16,0,1,1-6.32.13l-.3-15.18a3.14,3.14,0,0,1,1.07-2.43,3.21,3.21,0,0,1,2.54-.77l15,2.13a3.17,3.17,0,0,1-.88,6.27Z"/><path class="cls-5" d="M108.11,326.44c-.07-.23-.56-1.83-.68-2.29-.66-2.54-1.23-5.11-1.65-7.7-1.21-7.51-1.18-16.11,1.58-23.31,3.6-9.37,12.07-13.93,20.91-17.43,10-4,20.68-6.91,29.22-13.83,6.29-5.1,9.78-12.32,15.5-17.86,3.43-3.32,8.35-5.47,12.94-3,5,2.73,6.95,7.41,6.95,12.58,0,6.23-3,13.16-6.66,17.55a27.7,27.7,0,0,1-.7,8.12,95,95,0,0,1-4.36,13.88,2.11,2.11,0,0,1-3.93-1.53,91,91,0,0,0,4.16-13.22c.24-1.12.44-2.21.56-3.24a12.9,12.9,0,0,1-6.34,2.76,5.93,5.93,0,0,1-6.79-6.54c.08-3.22,2-6.83,4.73-8.27,4.23-2.23,8.63-.25,11,3.26a24.73,24.73,0,0,0,4.14-12.78c0-3.61-1.26-7-4.76-8.87-2.87-1.57-5.83.21-8,2.29-5.81,5.63-9.39,12.92-15.78,18.1-8.88,7.2-19.89,10.35-30.33,14.48-7.74,3.07-15.37,6.81-18.52,15-2.5,6.52-2.45,14.32-1.35,21.13.39,2.46.93,4.89,1.56,7.3.14.53.57,1.61.73,2.48a3.93,3.93,0,0,1-.06,1.93,2.11,2.11,0,0,1-4.07-1.05Zm73.53-56.5c-.95-2.48-3.52-4.44-6.12-3.06a5.6,5.6,0,0,0-2.49,4.65,2.22,2.22,0,0,0,.64,1.93,2.33,2.33,0,0,0,1.59.29C177.7,273.55,179.94,271.57,181.64,269.94Z"/><path class="cls-19" d="M94.1,379.75,118,368.17l-5.12-26S100,333,110.64,326.43c0,0,1.19-2.91,9.88,2.9,0,0,11.65,4.42,11.85-11.95l-.43-18.85s32.79,10.13,52.05-13.16c0,0,6.65,24.08,11.48,41.54a20.24,20.24,0,0,1-12.29,24.29l-10.88,4.14,1.42,10.71,14.5.08s-9.39,32-35,36.79C128.49,407.57,110,389.41,94.1,379.75Z"/><path class="cls-5" d="M118,368.07l-3.8,1.91,1.77,7.85a2.09,2.09,0,0,0,2.48,1.64,2.12,2.12,0,0,0,1.65-2.49Z"/><path class="cls-5" d="M112.13,341.72a42,42,0,0,0,7,2.75,2.11,2.11,0,0,1-1.1,4.08,38.55,38.55,0,0,1-4.19-1.45l-1-4.9S112.6,342,112.13,341.72Z"/><path class="cls-5" d="M172.3,355.34a64.28,64.28,0,0,1-20.12,2.06.94.94,0,0,0-.26,1.85c7.71,2.14,17.8,4.77,21.56,5Z"/><g id="SIGN2"><rect class="cls-20" x="172.55" y="433.21" width="32.89" height="232.38" transform="translate(-139.48 70.16) rotate(-15.44)"/><path class="cls-21" d="M240.66,206.47,6,263,51.54,461.46"/><path class="cls-21" d="M51.54,461.46l229-53.69-39.83-201.3"/></g></g><g id="HAND1"><path class="cls-6" d="M135.24,705.34S107.45,547.84,148,531a93,93,0,0,1,17.28-6.12l4.24,13.9,32-5.72-3.82-13.23s24.72,1.89,28.92,9.42c0,0,6.64,10.44-.89,18.25,0,0,14.23,9,3.83,24.1,1.46.59,12.55,7.21.7,25.92,0,0,8.75,13-8.95,26.91s-22.52,16-22.52,16l8,24.5,11.72-3.34L221.14,698S134.17,695.81,135.24,705.34Z"/><path class="cls-11" d="M199.25,640.32l-16.83,8.19a2.51,2.51,0,0,0,.14,4.59c5.58,2.32,12.33,3,20.67,1.79Zm-2.85-17.48s17.69-7.39,31.64-16.33c1.07-.68,2.12-1.38,3.14-2.08l.36-.25c.18-.13.76-.48.76-.48a17.05,17.05,0,0,0-2.1-6.31l-.62.44-1.54,1.1c-2.9,2-6.1,4-9.33,5.84A251.36,251.36,0,0,1,194,617a3.16,3.16,0,0,0,2.44,5.84Zm-2.05-24.68S212,590.77,226,581.84c2.34-1.5,4.57-3.05,6.61-4.62.55-.42,1.48-1.09,1.48-1.09a9.72,9.72,0,0,0-4.4-4.54s-.86.6-1.36,1a116.5,116.5,0,0,1-11.66,7.52,251.36,251.36,0,0,1-24.75,12.23,3.16,3.16,0,0,0,2.44,5.84Zm-5.06-23.79s17.86-7,32-15.59c3.74-2.27,9.23-6.63,9.23-6.63a13.91,13.91,0,0,0-4.64-4.63s-8.82,6.55-13.88,9.3a249.49,249.49,0,0,1-25,11.65,3.17,3.17,0,0,0,2.3,5.9Zm-25.93-30.78s16.34-.45,30.36-3.47c6.33-1.37,12.18-3.28,16.06-5.82a3.17,3.17,0,0,0-3.47-5.3c-4.53,3-12.2,4.8-19.74,6a197.91,197.91,0,0,1-23.38,2.24,3.17,3.17,0,1,0,.17,6.33Z"/><path class="cls-22" d="M124.34,751.07h113s23.36-27-4.35-54H128C120.31,701.89,103.74,728.78,124.34,751.07Z"/><path class="cls-1" d="M130.16,751.07l-4.35-6.79a6.43,6.43,0,0,1,10.84-6.93l8.77,13.72Zm49.5,0a6.51,6.51,0,0,1,.45-1l8.14-14.24a6.43,6.43,0,0,1,11.17,6.39l-5,8.82Zm52.86-14.83-14.07-8.43a6.43,6.43,0,0,0-6.61,11l14.06,8.44a6.44,6.44,0,0,0,6.62-11Zm-68,.21.51-16.39a6.43,6.43,0,0,0-12.86-.39l-.5,16.39a6.43,6.43,0,1,0,12.85.39ZM117.81,710.9l12.85-3.54a6.43,6.43,0,1,1,3.42,12.4l-15.8,4.35a6.39,6.39,0,0,1-3.78-.1A41.21,41.21,0,0,1,117.81,710.9Zm119.42-9.26a42.9,42.9,0,0,1,6.88,11.41,6.85,6.85,0,0,1-1.38.5l-15.95,3.82a6.43,6.43,0,1,1-3-12.51Zm-38.91-4.56,2.87,11a6.43,6.43,0,1,1-12.44,3.25L185,697.08Zm-25.55,0a6.43,6.43,0,0,1-8.13,8.87l-15.23-6.09a6.41,6.41,0,0,1-3.19-2.78Z"/></g></g><g id="SIGN-1"><g id="SIGN3"><path class="cls-1" d="M595.28,19.11,556.08,218,830.56,268.3l34.07-200Z"/><path class="cls-23" d="M832.5,241.14s-152.7-76.56-270.21-62.09l-7.13,37.75,272.27,51.67Z"/><path class="cls-1" d="M794.24,224.22c2.17,1,4.34,1.93,6.48,2.9a64.35,64.35,0,0,0,1.84,10.73c3.42,13.41,12.07,23.52,23.31,30.08l-14.1-2.63a53.15,53.15,0,0,1-15.34-25.88A68.34,68.34,0,0,1,794.24,224.22Zm-29.06-11.34c1.8.51,3.83,1.17,6,2-.23.66-.47,1.31-.71,2a85.44,85.44,0,0,1-7,14.73,71,71,0,0,1-20.06,21l-9.08-1.7a66.69,66.69,0,0,0,23.73-22.62,78,78,0,0,0,6.43-13.65ZM556.42,214a3.75,3.75,0,0,1,1-.65,3.45,3.45,0,0,1,.62-.2c.35-.12.93-.33,1.17-.4,1.14-.34,2.29-.64,3.45-.91,3.11-.72,6.24-1.33,9.38-1.87a148.86,148.86,0,0,1,27.15-2.14c29,.45,50.28,8.06,66.68,30.29l-9.62-1.79c-14.52-16.18-33-21.8-57.16-22.17a141.51,141.51,0,0,0-26,2.05c-3,.52-6,1.11-9,1.8q-1.29.28-2.55.66l-.58-.11a2.11,2.11,0,0,0,.76-1.31,3.12,3.12,0,0,1-.64,1.1l-.19.2-5.14-1Zm188.76-5.81a3.16,3.16,0,0,1,.54,3.72c-3.08,5.77-6.61,11.07-11.76,15.23-17.67,14.27-45.7,14.36-61.21-3.22a60,60,0,0,1-11.67-20.81c-.73-2.24-1.39-4.52-1.9-6.83a7.08,7.08,0,0,1,0-1.72,3.16,3.16,0,0,1,4.19-4.11,3.49,3.49,0,0,1,2.1,2.53,9.33,9.33,0,0,1-.05,2.24c.46,2,1,4,1.66,5.93a53.67,53.67,0,0,0,10.4,18.58c13.3,15.07,37.34,14.72,52.49,2.49,4.48-3.62,7.48-8.28,10.16-13.29a3.18,3.18,0,0,1,1.8-1.51Zm-168.32-30.4c2.2.87,4.37,1.59,6.28,2.21,16.29,5.31,32.64,4.76,48.8,1.31l13.28,3.15c-21.09,6.13-42.62,8.54-64,1.56-4.87-1.58-11-3.92-16-7.17A77.72,77.72,0,0,1,576.86,177.77Zm-12.33-7.85a15.57,15.57,0,0,0,2.35,2.39c-1.42,1.48-2.62,2.81-3.51,3.91l-.21,1.13-.42-.33c.19-.25.4-.52.63-.8Z"/><path class="cls-24" d="M621.31,178.46s69.87,70.77,140.12,33.06c0,0-23.73-7.61-28.5-9.44l2-20,6.93-2.36a20.45,20.45,0,0,0,11.25-9.35c11-19.52,10.76-37.44,10.35-54.55a25.51,25.51,0,0,0-8.94-19c-9.63-8.18-27.19-18.52-52.74-15.94a31.51,31.51,0,0,0-21.57,11.63c-5.64,7-11.6,18.16-12.63,34.48,0,0-6.05-8.65-13.69-.43-3.09,3.32-2.61,16.64,10.77,21.07l-4.88,35.9Z"/><path class="cls-19" d="M670.46,111.14c-.32,1-3,16.73-3,16.73s1.11,4.32,7.34,5.29c19,3,10.91-23,39.24-25.75,13-1.26,20.75,4.41,34.69,8,3.62.93,16.68,4,14.06-5.75a28.11,28.11,0,0,0-2.93-6.7s-17.62-26.81-58.48-22a31.5,31.5,0,0,0-21,11.51A55.46,55.46,0,0,0,670.46,111.14Z"/><path class="cls-5" d="M735.53,181.72a65.09,65.09,0,0,1-33.46-8.6,2.46,2.46,0,0,0-3.22,3.56c6.86,9.72,19,23.15,34.09,24.35Z"/><path class="cls-5" d="M663.91,152.62l3.81-1a1.57,1.57,0,0,0,.07-3l-2.91-.94a.17.17,0,0,0-.14,0,.23.23,0,0,0-.08.12C664.52,148.7,663.91,152.62,663.91,152.62Z"/><path class="cls-16" d="M824.9,264.76,861.46,67.51a3.17,3.17,0,0,1,6.23,1.16L830.54,269a3.14,3.14,0,0,1-3.7,2.53L554.56,219.91a3.17,3.17,0,1,1,1.19-6.22Z"/><path class="cls-16" d="M595.82,18.66,558.26,217.39a3.17,3.17,0,1,1-6.22-1.18L590.2,14.36a3.15,3.15,0,0,1,1.33-2,3.19,3.19,0,0,1,2.38-.49L865.18,65A3.16,3.16,0,0,1,864,71.19Z"/><rect class="cls-20" x="495.37" y="376.93" width="316.49" height="37.26" transform="translate(128.75 950.7) rotate(-77.79)"/></g><g id="SIGN-11"><g id="HAND2"><path class="cls-10" d="M560.66,751.07c-32-39,6.74-74.29,6.74-74.29-35.5-37.22-.25-61.76-.25-61.76-29.61-33.25,5-56.93,5-56.93h83.54s34.58,23.68,5,56.93c0,0,35.25,24.54-.25,61.76,0,0,38.73,35.25,6.74,74.29Z"/><path class="cls-1" d="M661.6,731.45l-20.84,8.27a3.16,3.16,0,0,0,2.34,5.88l20.83-8.27a3.16,3.16,0,1,0-2.33-5.88Zm-58.26,6.42-22.4-.77a3.16,3.16,0,1,0-.22,6.32l22.4.78a3.17,3.17,0,0,0,.22-6.33Zm25-30.84-4.15,22a3.16,3.16,0,1,0,6.22,1.17l4.15-22a3.16,3.16,0,1,0-6.22-1.17ZM558,722.85l21.59-6a3.17,3.17,0,1,0-1.7-6.1l-21.59,6a3.17,3.17,0,1,0,1.7,6.1Zm34-32.28,12.28,18.76a3.17,3.17,0,0,0,5.3-3.47L597.36,687.1a3.17,3.17,0,0,0-5.3,3.47Zm74.46,3-22.33-2a3.16,3.16,0,1,0-.57,6.3l22.33,2a3.16,3.16,0,0,0,.57-6.3Zm-91.68-7.08,10.32-19.9a3.17,3.17,0,0,0-5.63-2.92L569.21,683.6a3.17,3.17,0,0,0,5.63,2.91ZM641,666.06l-20.32,9.49a3.16,3.16,0,0,0,2.68,5.73l20.31-9.49a3.16,3.16,0,1,0-2.67-5.73Zm-31.14-4.79-6.5-21.45a3.16,3.16,0,1,0-6.05,1.82l6.49,21.47a3.17,3.17,0,1,0,6.06-1.84Zm51.3-32,.19,22.41a3.17,3.17,0,1,0,6.33,0l-.2-22.42a3.16,3.16,0,1,0-6.32.06Zm-21.2-2.35L628.5,646.16a3.16,3.16,0,1,0,5.44,3.23l11.44-19.27a3.17,3.17,0,0,0-5.44-3.24Zm-85,16.9L577,647.56a3.17,3.17,0,1,0,1.07-6.24L556,637.54a3.16,3.16,0,0,0-1.06,6.24Zm29.18-19.22-2.3-22.3a3.16,3.16,0,1,0-6.29.65l2.3,22.3a3.16,3.16,0,0,0,6.29-.65Zm43.6-17.77L606,612.48a3.16,3.16,0,1,0,1.6,6.11l21.69-5.68a3.16,3.16,0,0,0-1.61-6.12Zm12-19.39,8.12,20.9a3.16,3.16,0,1,0,5.89-2.3l-8.11-20.89a3.16,3.16,0,1,0-5.9,2.29Zm-50.23-9.95,16.42,15.26a3.16,3.16,0,1,0,4.31-4.63l-16.42-15.26a3.16,3.16,0,1,0-4.31,4.63Zm-16.94-10.17-14.43,17.15A3.16,3.16,0,1,0,563,588.5l14.43-17.15a3.16,3.16,0,1,0-4.84-4.07Zm51.09-9.1,7.14.07-9.91,18.59a3.16,3.16,0,0,1-5.58-3Zm41.45,9.32a39.28,39.28,0,0,1,3.26,5.43l-8.78,4.69a3.16,3.16,0,1,1-3-5.58Z"/><path class="cls-17" d="M570.69,558.4S564.48,458,599.91,437.27c0,0,19-14,29.86-19.72h0c.3-.16,17.35-8.84,11.64,11.69,0,0-7,16.21-20,26.89,0,0,10.9,24.46-8.65,45.85l-9.87,43.11,35,7.41,6-31.62s-7.62-3.25.13-11.37c0,0-10.13-8.08,1.35-17.4,0,0-12.71-6.42-2-16.66,0,0-17.1-10.21,2.93-22.24,0,0,14.65-10.8,19.39-3.54,2,3,3.18,8-3.38,13.39,0,0,11.54,3.3,3,17.32,2.27-.77,11,7.46-.5,16.54,0,0,16.24,6.32-8.26,21.85V558.4Z"/><path class="cls-4" d="M656.61,518.66l0,4.63a26.25,26.25,0,0,1-9.76,2.4,13.73,13.73,0,0,1-3.79-.44l.85-4.14a10.59,10.59,0,0,0,4.6.23A27.18,27.18,0,0,0,656.61,518.66Zm8-21.78a9,9,0,0,1,3.84,2.55L641.38,515.8a2,2,0,0,1-.76.28c0-3.3,3.48-6.6,3.48-6.6Zm-51.93,4.88-1.54,6.7-3.71,3a2.11,2.11,0,0,1-2.67-3.28Zm52.71-21.47-.06.08s1.65-.43,3.93,2.54L640.11,500.1c.78-4.93,5.42-8,5.42-8l-.17,0ZM662.45,463l-.06.08a8.19,8.19,0,0,1,3.87,2.46,1,1,0,0,1-.17.12l-26.94,17.45c.3-3.94,4.2-7.72,4.2-7.72l-.08,0Z"/></g></g></g></g></g></svg>