<svg xmlns="http://www.w3.org/2000/svg" viewBox="0 0 942.74 648.53"><defs><style>.cls-1,.cls-8{fill:#ffd274;}.cls-1,.cls-10,.cls-11,.cls-12,.cls-13,.cls-14,.cls-15,.cls-3,.cls-4,.cls-5,.cls-6,.cls-7,.cls-9{fill-rule:evenodd;}.cls-2,.cls-3{fill:#fff;}.cls-4{fill:#a1beef;}.cls-5{fill:#3968be;}.cls-6{fill:#ef7b58;}.cls-7{fill:#f24d46;}.cls-9{fill:#628ddf;}.cls-10{fill:#de7861;}.cls-11{fill:#8f3536;}.cls-12{fill:#ab494a;}.cls-13{fill:#4b0000;}.cls-14{fill:#ffd275;}.cls-15{fill:#ffd376;}</style></defs><title>Ativo 6</title><g id="Camada_2" data-name="Camada 2"><g id="Camada_1-2" data-name="Camada 1"><g id="BOTTLE"><path class="cls-1" d="M0,612.71V385.84a19.77,19.77,0,0,1,19.77-19.77h0V323.62A29,29,0,0,1,46,294.73v-.13H91v.13a29,29,0,0,1,26.27,28.89v42.45h0A19.77,19.77,0,0,1,137,385.84V612.71Z"/><rect class="cls-2" x="19.77" y="356.12" width="97.47" height="9.89"/><path class="cls-3" d="M88.88,612.71c-1.35-11.54-4-23.59-8.68-33.75C74.63,566.9,66.12,557.51,53,555.55q0,2.19-.24,4.44c-.72,7.22-3,16.18-8.72,21.16-3.16,2.72-6.26,3.64-9,3.45-4.15-.27-7.78-3.12-9.93-7.32-3.27-6.37-3-15.69,3.27-21.28a29.73,29.73,0,0,1,17.84-7c-3.4-21.6-24.53-35.3-46.19-37.91v-6.34c24.9,2.82,49.23,19.13,52.6,44.39l.3,0C68.81,551.1,79.3,561.91,86,576.31c5.06,11,7.86,24,9.27,36.4ZM137,397.06v6.51c-1.17.32-2.15.61-2.57.69-21.48,4.44-44.31,22.15-41.6,46.2a30.62,30.62,0,0,1,11.48-4.12c5.37-.69,10.17.64,12.91,4.17,1.81,2.34,2.84,5.76,2.24,10.57-.78,6.22-3.51,9.45-6.74,10.84s-7.16.94-11.11-.94A30.48,30.48,0,0,1,90.23,461c-.1.16-.19.32-.28.48-9.44,17.49-5.42,37.88,5.79,52,9.66,12.16,24.73,19.69,41.26,16.52v6.44c-18.52,3.1-35.36-5.36-46.21-19-12.71-16-17.11-39.13-6.4-59a16.68,16.68,0,0,1,2.79-3.69,16,16,0,0,1-.36-1.57c-4.62-28.38,21.3-50,46.33-55.19C133.72,397.94,135.29,397.48,137,397.06ZM94.77,456.58a23.64,23.64,0,0,0,9.55,8.69c2.11,1,4.21,1.56,5.9.83s2.56-2.63,3-5.8c.33-2.67,0-4.62-1-5.92-1.47-1.9-4.21-2.14-7.1-1.77A25.1,25.1,0,0,0,94.77,456.58ZM117.23,326a53.63,53.63,0,0,1-20.9,14.13c-8.73,3.15-17.74,3.34-25-.65a23.68,23.68,0,0,1-7.24-6.2c-17.31,3.24-32.75-9.72-38.65-23.85-.27-.64-.52-1.28-.75-1.93a39.25,39.25,0,0,1,4.82-5.56,31.66,31.66,0,0,0,1.77,5c4.59,11,16,21.5,29.26,20.39-.34-.72-.65-1.47-1-2.25a14.26,14.26,0,0,1,0-8.42,25.35,25.35,0,0,1,6.67-11.53c4.24-4,9.4-5.16,14-1.08,4.26,3.79,4.33,9.26,1.62,14.65a31.73,31.73,0,0,1-11.53,12,16.56,16.56,0,0,0,4.09,3.17c5.73,3.15,12.87,2.73,19.79.24a46.63,46.63,0,0,0,22.25-17.3A37.66,37.66,0,0,1,117.23,326Zm-50.49-.37a24.61,24.61,0,0,0,9.44-9.73c1.31-2.59,1.88-5.26-.16-7.07-1.81-1.61-3.77-.62-5.45,1a18.85,18.85,0,0,0-4.88,8.51,8,8,0,0,0-.16,4.58A27.78,27.78,0,0,0,66.74,325.6Z"/></g><g id="PLANT"><g id="VASE"><path class="cls-4" d="M639.21,570.79a33.66,33.66,0,0,1,67.26,0h-6.32a27.34,27.34,0,0,0-54.61,0Zm107.5-27.11a33.8,33.8,0,0,1-17.27,4.7,33.19,33.19,0,1,1,0-66.37,33.78,33.78,0,0,1,25.78,11.86l-1.53,8.95a27.39,27.39,0,0,0-24.25-14.48,26.86,26.86,0,1,0,0,53.72,27.48,27.48,0,0,0,18.81-7.39ZM594.9,471a33.81,33.81,0,0,1,22.41-8.44,33.19,33.19,0,1,1,0,66.38,34,34,0,0,1-13.31-2.7l-1.28-7.78a27.52,27.52,0,0,0,14.59,4.15,26.86,26.86,0,1,0,0-53.72,27.45,27.45,0,0,0-21.13,9.84Zm164.88-3.8a33.16,33.16,0,0,1,5.1-66,33.78,33.78,0,0,1,6.08.54l-1.07,6.24a27.46,27.46,0,0,0-5-.45,26.83,26.83,0,0,0-4,53.42ZM580,370.79a35,35,0,0,1,4-.23,33.16,33.16,0,0,1,5.22,66l-1-6.24A26.84,26.84,0,0,0,584,376.89a28.41,28.41,0,0,0-4.55.37l-.38-2.31C579.37,373.53,579.69,372.14,580,370.79ZM722.34,314c2.57.9,5,1.83,7.34,2.8a26.77,26.77,0,0,0-14.24,23.57,27.38,27.38,0,0,0,53.44,7.89,51.85,51.85,0,0,1,3.53,7.79,33.73,33.73,0,0,1-63.3-15.68A33,33,0,0,1,722.34,314Zm-80.05-22.21a33.2,33.2,0,1,1-34.44,33.38,62.86,62.86,0,0,1,6.65-4.34,25.7,25.7,0,0,0-.33,4.14,27.32,27.32,0,1,0,30.55-26.68Zm33-41a26.4,26.4,0,0,0-.7,6.07,27.1,27.1,0,0,0,27.32,26.86,27.5,27.5,0,0,0,15-4.41l-3.57,8.78a34,34,0,0,1-11.42,2,33.44,33.44,0,0,1-33.65-33.19,32.87,32.87,0,0,1,.56-6.07Z"/><path class="cls-4" d="M677.43,394.78c14.91,0,27.06,11.77,27.06,26.31s-12.15,26.32-27.06,26.32a3.16,3.16,0,1,0,0,6.32c18.45,0,33.38-14.65,33.38-32.64s-14.93-32.64-33.38-32.64a3.17,3.17,0,0,0,0,6.33Z"/><path class="cls-4" d="M677.43,447.41c-14.9,0-27-11.77-27-26.32s12.15-26.31,27-26.31a3.17,3.17,0,1,0,0-6.33c-18.44,0-33.37,14.65-33.37,32.64s14.93,32.64,33.37,32.64a3.16,3.16,0,1,0,0-6.32Z"/><path class="cls-5" d="M725,254H663.36a3.17,3.17,0,1,1,0-6.33h66.4a3.17,3.17,0,0,1,2.91,4.41l-24.38,57.05h2a67.28,67.28,0,0,1,66.32,78.6c-13,76.34-31.37,183.61-31.37,183.61a3.16,3.16,0,0,1-3.11,2.63H663.36a3.17,3.17,0,1,1,0-6.33h76l30.91-181a60.93,60.93,0,0,0-60.08-71.2h-6.75a3.17,3.17,0,0,1-2.91-4.41Z"/><path class="cls-5" d="M645.15,309.11l-24.39-57.05a3.17,3.17,0,0,1,2.91-4.41h66.4a3.17,3.17,0,1,1,0,6.33H628.46l24.39,57a3.17,3.17,0,0,1-2.91,4.41h-6.75a60.93,60.93,0,0,0-60.08,71.2l30.91,181h76.05a3.17,3.17,0,1,1,0,6.33H611.35a3.16,3.16,0,0,1-3.11-2.63s-18.33-107.27-31.37-183.61a67.28,67.28,0,0,1,66.32-78.6Z"/></g><path class="cls-6" d="M679.28,247.93c.21-1.07.45-2.14.68-3.2a165.58,165.58,0,0,1,4.39-16.2c2.89-8.57,3.07-8.77,5.43-14.9,1.3-3.38,2.87-6.65,4.45-9.9,19.78-40.48,55.47-70,97.71-84.91,2.76-1,24.64-7.37,34.29-8.86a15.7,15.7,0,0,1,5.26-.16,3.84,3.84,0,0,1,1.86,1,3.33,3.33,0,0,1,.67,3.82,13.67,13.67,0,0,1-2.51,3.39c-2.21,2.35-5.54,5.32-5.93,5.72-9.21,9.29-17.08,19.87-26.91,28.54a139.77,139.77,0,0,1-30.8,20.38C755,179,729.76,187.81,711.35,200.9c-6.43,4.57-12,9.65-15.82,15.38-1.83,4.44-3.48,9-4.95,13.54,0,.19-3.47,12-4.44,16.3-.14.61-.27,1.21-.4,1.81Z"/><path class="cls-7" d="M695.53,216.28c-1.83,4.44,15.44-45.78,72.34-63.47,34.9-10.85,70.33-44.1,65.48-42-1,.42,1.39,2,.67,3.82a13.67,13.67,0,0,1-2.51,3.39c-2.21,2.35-5.54,5.32-5.93,5.72-9.21,9.29-17.08,19.87-26.91,28.54a139.77,139.77,0,0,1-30.8,20.38C755,179,729.76,187.81,711.35,200.9,704.92,205.47,699.31,210.55,695.53,216.28Z"/><path class="cls-6" d="M759.5,250.67c-7.87-3.28-38.58-8-47.51-6.68-1.72.24-2.76-2.1-2.37-3.8a3.44,3.44,0,0,1,1.84-2.34,13.82,13.82,0,0,1,5.66-.73c10.68.27,37.33,4.58,44.82,7.71,20.79,8.69,30.73,26.16,39.55,45.48a3.28,3.28,0,0,1,.52.59c6.48,9.52,17.35,15.62,28.9,20.7,12.18,5.34,25.15,9.51,35.12,14.8a114.13,114.13,0,0,1,20.47,13.88c7.91,6.71,14.93,14.94,19.29,24.42,1.84,4,1.36,6.82,0,8.65a7.25,7.25,0,0,1-4.22,2.62,21.65,21.65,0,0,1-7.78.11c-17.87-2.37-54.16-19.32-59.87-23.75-19.32-15-27.93-36.56-36.94-56.68C788.48,276.74,779.68,259.1,759.5,250.67Zm-43.75-8.89v0Z"/><path class="cls-7" d="M797,295.65C844.4,378,872.38,326.54,901.56,376a39.49,39.49,0,0,1-7.78.11c-6.84-.91-16.36-3.94-25.84-7.59-15.31-5.91-30.5-13.43-34-16.16C814.59,337.31,797,295.65,797,295.65Z"/><path class="cls-6" d="M633.11,247.93q-1.2-2.85-2.53-5.65a97.6,97.6,0,0,0-11.86-18.94,2.73,2.73,0,0,1-.52-.5c-13.87-16.45-30-17.28-46.7-14-18,3.56-36.57,11.64-54.06,12.28-4.11.15-28.84-3-38.85-6.84a13.3,13.3,0,0,1-4.77-2.83,4.63,4.63,0,0,1-1.29-2.7,3.4,3.4,0,0,1,.36-1.92,5.14,5.14,0,0,1,1.54-1.57c7.84-5,17.73-8.32,26.3-11.8,30.88-12.53,62.69-17.12,92.9.3a104.08,104.08,0,0,1,42.66,45.76c1.32,2.76,2.53,5.55,3.66,8.38Z"/><path class="cls-7" d="M473.82,211.48c16.09.23,25.23,2.94,45.25-3.82,46.44-15.71,63.56-20.69,72.39,0,0,0-13.17-.13-20,1.21-18,3.56-36.57,11.64-54.06,12.28-4.11.15-28.84-3-38.85-6.84A23.11,23.11,0,0,1,473.82,211.48Z"/><path class="cls-6" d="M696.6,247.93c.11-.78,1.47-1.52,2.14-2.05a146.44,146.44,0,0,1,27.66-17.43c2.27-1.09,5.46-2.52,8.36-3.68,23.32-9.34,48.89-12,76-7.45a188.09,188.09,0,0,1,30.75,7.74,81.23,81.23,0,0,1,17.09,7.88c.75.48,3.5,2,4.63,3.43a4,4,0,0,1,.16,5.38c-2.67,3.41-7.47,5.65-13,6.91-7.32,1.69-15.87,1.78-20.91,1.8-13.37,0-26.89-2.21-39.81-5.58-8.22-2.14-23.39-8.53-37.29-11.91-5.75-1.4-11.27-2.35-15.85-2.08a135.77,135.77,0,0,0-30.1,17Z"/><path class="cls-7" d="M736.55,230.89c38.56-25.24,69.57,31,126.82,10.86,4.1-1.44-7.47,5.65-13,6.91-7.32,1.69-15.87,1.78-20.91,1.8-13.37,0-26.89-2.21-39.81-5.58-8.22-2.14-23.39-8.53-37.29-11.91C746.65,231.57,741.13,230.62,736.55,230.89Z"/><path class="cls-6" d="M646.55,247.93,623.74,18.43a3.17,3.17,0,1,1,6.3-.62l22.87,230.12Zm17.3,0V60.85a3.17,3.17,0,0,1,6.33,0V247.93Z"/><circle class="cls-8" cx="626.94" cy="14.7" r="14.7"/><circle class="cls-8" cx="668.62" cy="48.43" r="14.7"/></g><g id="LAPTOP"><path class="cls-5" d="M102.38,219,85.76,234.56l54.77,399.63,348.63,14.34,453.58-14.34V583.27L489.16,594.14,166.9,583.27Z"/><path class="cls-9" d="M102.38,219l508.77,36.73,80.34,302.65,251.25,24.86L489.16,597.33,166.9,583.27Z"/><path class="cls-3" d="M692,558.52l-450.55,24.2,247.68,10.81,453.59-10.59v7.72l-450.45,10.5V648.4l-3.13.13-3.2-.13V601.11L166.69,587.18a3.86,3.86,0,0,1-3.63-3.2L102.38,219l7.6.55,60.16,360,4.09.18,515.62-27.5c.75,2.86,1.58,6,1.64,6.12A2.06,2.06,0,0,0,692,558.52Z"/><path class="cls-3" d="M130.26,244.82l59,313.59,476.73-19L593.6,270.1Z"/><path class="cls-9" d="M215,627.42a3.07,3.07,0,0,1-.11-.91l.87-26.64a3.51,3.51,0,0,1,.09-.65l6.2.25a4.08,4.08,0,0,1,0,.61l-.87,26.64a3.08,3.08,0,0,1-.2,1Zm-11.5-.6a3.07,3.07,0,0,1,0-.68l.87-26.64a3.09,3.09,0,0,1,.12-.75l6.15.25a3.3,3.3,0,0,1,.05.71l-.86,26.63a3.43,3.43,0,0,1-.13.8ZM192,626.21a3.24,3.24,0,0,1,0-.45l.87-26.63a3.36,3.36,0,0,1,.14-.85l6.11.25a3,3,0,0,1,.07.8L198.29,626a3.7,3.7,0,0,1-.07.57Zm-11.46-.6v-.22l.87-26.63a2.92,2.92,0,0,1,.18-1l6,.25a3,3,0,0,1,.1.9l-.86,26.64,0,.34Zm-11.44-.6.87-26.63a3.07,3.07,0,0,1,.21-1l6,.25a3.08,3.08,0,0,1,.13,1l-.87,26.63v.13Z"/><path class="cls-10" d="M448.2,458.7s-6.91-63.41-10-92.1A16.41,16.41,0,0,1,450,349l11.57-3.28s-2.86-27.49,18.15-26.25a15,15,0,0,1,9.88,4.54,14.19,14.19,0,0,1,3.43,5.64s4.41-16.75,22.62-10.44c0,0,6.26,1,7.09,9.17,0,0,3.11-12.52,18.21-6.49,0,0,6,2.13,7.62,12.34,0,0,.06-9.56,11.34-9.43,3.82.05,8.89,1.56,10.6,24.74l8.07,105Z"/><path class="cls-11" d="M519.47,376.73c.22-3.46.15-8.54-.06-14.3-.49-13.76-1.88-31.29-2.69-40.84-.08-.83-.29-2-.29-2,3.19,1.11,5.17,3.62,6,7.39,0,0,.07.95.11,1.43.79,9.81,1.73,23,2.11,33.82.21,5.83.23,11,0,14.72.85,3.45,2.27,5.71,4,7.13,2.67,2.16,6,2.31,8.6,2.16,6.57-.36,8.38-6.17,8.71-7.52l-3.4-52.64-.19-3.45c2.92,1.9,5,6.28,6,10.27l.13,1.91,2.77,43.91a2.79,2.79,0,0,1,0,.5,24.21,24.21,0,0,0,5.78,3.14,9.06,9.06,0,0,0,5.89.36c1.63-.55,2.91-2,4.49-4.05A24.12,24.12,0,0,0,572,367.3l.71,12.73s-2.75,5.32-6.25,6.92a13.89,13.89,0,0,1-8.59,1.1,25.13,25.13,0,0,1-8.5-3.77,13.92,13.92,0,0,1-11.76,7.24c-3.69.2-8.38-.25-12.21-3.32a14.87,14.87,0,0,1-2.8-3c-3.58,6.16-11.33,9.33-17.83,6.73a14.72,14.72,0,0,1-7.58-7.3,14.05,14.05,0,0,1-.73,2.32l.89.6c1.59,1.31,3.15,2.66,4.72,4,6,5.08,12,10.49,16.83,16.67a49.83,49.83,0,0,1,3.09,4.37,51,51,0,0,1,4.18-3.31,50.48,50.48,0,0,1,15.93-7.41,2.64,2.64,0,1,1,1.41,5.08,44.15,44.15,0,0,0-18.85,10.33c.28.55.54,1.09.81,1.64a45.21,45.21,0,0,1,3.19,9,20.33,20.33,0,0,1,.59,7c-.35,2.84-1.4,5.9-3.7,7.78-4.64,3.78-11.89,1.65-14.8-3.18-2.34-3.87-1.51-8.86.17-12.73a35.4,35.4,0,0,1,5.46-8.53c.56-.66,1.14-1.32,1.74-2a47.84,47.84,0,0,0-3.36-4.87c-4.65-5.9-10.39-11.06-16.11-15.91-1.52-1.3-3-2.61-4.58-3.88l-.6-.41a13.79,13.79,0,0,1-8.52,3.31,13.53,13.53,0,0,1-14.37-10.1,2.64,2.64,0,0,1,5.13-1.21,8.46,8.46,0,0,0,9,6,8.2,8.2,0,0,0,5.46-2.16C492,385.27,493,382,492,376.26a2.64,2.64,0,0,1,2.19-3,2.19,2.19,0,0,1,.51,0,2.64,2.64,0,0,1,5,.82c.69,7.46,3.42,11.57,7,13,4.92,2,10.85-1.41,12.28-6.81a17.56,17.56,0,0,0,.41-2.79A2.21,2.21,0,0,1,519.47,376.73Zm1.29,44.56-.36.41a29.91,29.91,0,0,0-4.64,7.23c-1,2.41-2,5.5-.5,7.9s4.75,3.61,7,1.81c1.25-1,1.61-2.79,1.8-4.34a15.16,15.16,0,0,0-.49-5.19A40.18,40.18,0,0,0,520.76,421.29ZM492.43,328a14.41,14.41,0,0,0-5.52-6.19l0,1.86,1.46,22.63a2.64,2.64,0,1,0,5.26-.34Z"/><path class="cls-11" d="M506.91,359.8c.27,1.53,2.87,19.51-44.88,29.64a2.64,2.64,0,1,1-1.19-5.14c15-3.46,30.52-9.92,35.34-14.05,6.08-5.2,5.54-9.54,5.54-9.54l0-.23a10.94,10.94,0,0,0-4.94-7.89,31.44,31.44,0,0,0-11.45-4.53,95.86,95.86,0,0,0-21.75-1.68c-.62,0-2,.07-2,.07l-.19-5.26,1.74-.06a102.14,102.14,0,0,1,23.36,1.78C497,345.21,505.83,350.35,506.91,359.8Z"/><path class="cls-12" d="M221.54,464.46s-6.92-63.4-10-92.09a16.41,16.41,0,0,1,11.86-17.58l11.57-3.28s-2.86-27.49,18.14-26.25A15,15,0,0,1,263,329.8a14.3,14.3,0,0,1,3.43,5.64S270.8,318.69,289,325c0,0,6.26,1,7.1,9.17,0,0,3.1-12.53,18.2-6.49,0,0,6,2.13,7.63,12.34,0,0,.06-9.56,11.33-9.43,3.83.05,8.9,1.56,10.61,24.73l8.07,105.05Z"/><path class="cls-13" d="M292.81,382.49c.22-3.46.14-8.53-.06-14.29-.49-13.77-1.88-31.3-2.7-40.85-.07-.82-.28-2-.28-2,3.19,1.11,5.16,3.61,6,7.39l.12,1.42c.78,9.82,1.72,23,2.11,33.83.21,5.82.23,11,0,14.72.85,3.45,2.26,5.71,4,7.13,2.68,2.16,6,2.3,8.61,2.16,6.57-.37,8.38-6.17,8.71-7.52L316,331.86l-.19-3.45c2.92,1.9,5,6.27,6,10.27l.14,1.91,2.76,43.91a2,2,0,0,1,0,.49,24.13,24.13,0,0,0,5.79,3.15,9,9,0,0,0,5.88.35c1.64-.54,2.91-2,4.5-4a24.25,24.25,0,0,0,4.53-11.38l.7,12.73s-2.74,5.32-6.24,6.91a13.82,13.82,0,0,1-8.59,1.11,25.29,25.29,0,0,1-8.51-3.77A13.9,13.9,0,0,1,311,397.29c-3.69.2-8.38-.25-12.21-3.33a14.58,14.58,0,0,1-2.81-3c-3.58,6.16-11.32,9.33-17.83,6.73a14.74,14.74,0,0,1-7.57-7.3,14.05,14.05,0,0,1-.73,2.32l.88.6c1.6,1.31,3.15,2.66,4.72,4,6,5.07,12,10.49,16.84,16.67a50.46,50.46,0,0,1,3.09,4.37,47.43,47.43,0,0,1,4.18-3.31,50.38,50.38,0,0,1,15.93-7.41,2.64,2.64,0,1,1,1.41,5.08A43.91,43.91,0,0,0,298,423c.27.54.54,1.09.8,1.64a45,45,0,0,1,3.2,9,20.33,20.33,0,0,1,.59,7c-.35,2.83-1.4,5.9-3.7,7.78-4.64,3.78-11.9,1.65-14.81-3.18-2.33-3.87-1.5-8.86.18-12.73a34.8,34.8,0,0,1,5.46-8.53c.56-.67,1.14-1.32,1.74-2a46.76,46.76,0,0,0-3.36-4.87c-4.66-5.9-10.4-11.06-16.11-15.91-1.53-1.3-3-2.62-4.58-3.88l-.6-.41a13.73,13.73,0,0,1-8.52,3.3,13.54,13.54,0,0,1-14.38-10.1,2.64,2.64,0,0,1,5.14-1.2,8.47,8.47,0,0,0,9,6,8.22,8.22,0,0,0,5.47-2.16c1.84-1.87,2.79-5.19,1.87-10.88a2.63,2.63,0,0,1,2.18-3,2.3,2.3,0,0,1,.52,0,2.63,2.63,0,0,1,5,.82c.7,7.46,3.43,11.56,7,13,4.92,2,10.85-1.41,12.28-6.81a16.78,16.78,0,0,0,.4-2.79A2.65,2.65,0,0,1,292.81,382.49Zm1.28,44.56-.35.42a29.57,29.57,0,0,0-4.65,7.23c-1,2.41-1.94,5.5-.49,7.9s4.75,3.61,6.95,1.81c1.26-1,1.61-2.79,1.8-4.34a15,15,0,0,0-.49-5.2A39.54,39.54,0,0,0,294.09,427.05Zm-28.32-93.3a14.37,14.37,0,0,0-5.53-6.19l0,1.86,1.45,22.63a2.64,2.64,0,0,0,5.26-.34Z"/><path class="cls-13" d="M280.25,365.57c.26,1.52,2.87,19.51-44.89,29.64a2.64,2.64,0,1,1-1.18-5.14c15-3.46,30.51-9.92,35.33-14.05,6.08-5.2,5.55-9.54,5.55-9.54l0-.23a11,11,0,0,0-4.94-7.89,31.49,31.49,0,0,0-11.46-4.53,96.41,96.41,0,0,0-21.74-1.69l-2,.08-.19-5.26,1.74-.06a102.62,102.62,0,0,1,23.35,1.77C270.34,351,279.16,356.12,280.25,365.57Z"/><path class="cls-13" d="M349.5,503.09s-6.91-63.41-10-92.09a16.43,16.43,0,0,1,11.86-17.59l11.58-3.27S360,362.65,381,363.89a14.84,14.84,0,0,1,9.88,4.54,14.19,14.19,0,0,1,3.43,5.64s4.42-16.75,22.62-10.45c0,0,6.26,1.05,7.09,9.18,0,0,3.11-12.53,18.21-6.5,0,0,6,2.13,7.62,12.35,0,0,.06-9.57,11.34-9.43,3.82,0,10,2.57,12.95,24.14l9.37,105.28Z"/><path class="cls-12" d="M420.77,421.12c.22-3.46.15-8.54-.06-14.3-.49-13.76-1.88-31.29-2.69-40.84-.08-.83-.29-2-.29-2,3.19,1.11,5.17,3.61,6,7.39,0,0,.08.94.11,1.42.79,9.82,1.73,23,2.11,33.83.21,5.82.23,11,0,14.71.85,3.46,2.27,5.72,4,7.13,2.67,2.17,6,2.31,8.6,2.17,6.57-.37,8.38-6.17,8.71-7.52l-3.4-52.64-.19-3.45c2.92,1.9,5,6.27,6,10.27l.13,1.9,2.77,43.92a2.68,2.68,0,0,1,0,.49,23.86,23.86,0,0,0,5.78,3.14,9,9,0,0,0,5.89.36,13,13,0,0,0,5.3-3.92,42.2,42.2,0,0,0,6.3-10.72l.85,9.43s-2.63,7.39-9,9.43c-3,1-5.78,1.67-8.59,1.1a25.13,25.13,0,0,1-8.5-3.76,13.9,13.9,0,0,1-11.76,7.23c-3.69.21-8.38-.24-12.21-3.32a14.81,14.81,0,0,1-2.8-3c-3.58,6.15-11.33,9.33-17.83,6.73a14.76,14.76,0,0,1-7.58-7.3,14.68,14.68,0,0,1-.73,2.32l.89.6c1.59,1.3,3.15,2.66,4.72,4,6,5.08,12,10.5,16.83,16.67a51.37,51.37,0,0,1,3.09,4.37,53.26,53.26,0,0,1,4.18-3.31,50.87,50.87,0,0,1,15.94-7.41,2.64,2.64,0,0,1,1.4,5.09A45,45,0,0,0,430.53,458a46.18,46.18,0,0,0-4.57,3.7c.28.54.54,1.08.81,1.64a44.78,44.78,0,0,1,3.19,9,20.07,20.07,0,0,1,.59,7c-.35,2.83-1.4,5.9-3.7,7.77-4.64,3.79-11.89,1.66-14.8-3.17-2.34-3.87-1.51-8.86.17-12.73a35.2,35.2,0,0,1,5.46-8.53c.57-.67,1.15-1.32,1.74-2a46.76,46.76,0,0,0-3.36-4.87C411.41,450,405.67,444.8,400,440c-1.52-1.3-3-2.62-4.58-3.88l-.6-.41a13.77,13.77,0,0,1-8.52,3.3,13.53,13.53,0,0,1-14.37-10.1,2.63,2.63,0,1,1,5.13-1.2,8.47,8.47,0,0,0,9,6,8.13,8.13,0,0,0,5.46-2.15c1.85-1.88,2.8-5.19,1.87-10.88a2.64,2.64,0,0,1,2.19-3,2.19,2.19,0,0,1,.51,0,2.64,2.64,0,0,1,5,.83c.7,7.45,3.42,11.56,7,13,4.92,2,10.85-1.41,12.28-6.81a17.74,17.74,0,0,0,.41-2.79A2.25,2.25,0,0,1,420.77,421.12Zm1.29,44.56-.36.42a29.66,29.66,0,0,0-4.64,7.22c-1.05,2.41-1.95,5.5-.5,7.91s4.75,3.6,7,1.81c1.25-1,1.61-2.79,1.8-4.34a15.24,15.24,0,0,0-.49-5.2A40.18,40.18,0,0,0,422.06,465.68Zm-28.33-93.3a14.29,14.29,0,0,0-5.52-6.19l0,1.86,1.46,22.63a2.64,2.64,0,1,0,5.26-.34Z"/><path class="cls-12" d="M408.22,404.19c.26,1.53,2.86,19.52-44.89,29.65a2.64,2.64,0,1,1-1.19-5.14c15-3.46,30.52-9.93,35.34-14.05,6.08-5.2,5.54-9.54,5.54-9.54l0-.23A11,11,0,0,0,398,397a31.79,31.79,0,0,0-11.45-4.53,96.44,96.44,0,0,0-21.75-1.68l-2,.08-.19-5.26,1.74-.06a102.66,102.66,0,0,1,23.36,1.77C398.31,389.6,407.13,394.75,408.22,404.19Z"/><path class="cls-14" d="M435.06,305.38,423,330.1a3.16,3.16,0,0,0,5.68,2.78l12.1-24.73a3.16,3.16,0,1,0-5.68-2.77Zm-76.67,1.91,12.45,25.24a3.16,3.16,0,1,0,5.67-2.8l-12.44-25.24a3.17,3.17,0,0,0-5.68,2.8Zm41.23-9.68-.55,28.49a3.17,3.17,0,0,0,6.33.13l.55-28.5a3.17,3.17,0,0,0-6.33-.12Z"/><path class="cls-14" d="M271.19,496l-2.57,25.52a3.16,3.16,0,1,0,6.29.64l2.57-25.52a3.16,3.16,0,1,0-6.29-.64Zm31.93,2.3,1.74,20.19a3.17,3.17,0,0,0,6.31-.54l-1.75-20.19a3.16,3.16,0,1,0-6.3.54Zm-65.33-7.13L222.64,512a3.16,3.16,0,1,0,5.12,3.72l15.15-20.85a3.16,3.16,0,1,0-5.12-3.72Z"/><path class="cls-14" d="M523.69,490.84l1.7,21.6a3.16,3.16,0,0,0,6.31-.5L530,490.35a3.16,3.16,0,1,0-6.31.49Zm30.87.08,8.94,21.28a3.16,3.16,0,0,0,5.83-2.45l-8.94-21.28a3.16,3.16,0,1,0-5.83,2.45Zm24.6-7.94,20.17,17.79a3.17,3.17,0,1,0,4.19-4.75l-20.17-17.79a3.17,3.17,0,1,0-4.19,4.75Z"/></g><path class="cls-6" d="M80,179.22l20-43.3a3.16,3.16,0,0,1,5.8.12l16.24,39.62,18.46-26.25a3.16,3.16,0,0,1,5.72,1.41l5.95,45.46a3.17,3.17,0,0,1-6.28.82L141,159.69,123.93,184a3.17,3.17,0,0,1-5.52-.62l-15.69-38.25L84.26,185.05a3.17,3.17,0,0,1-4.47,1.4L49.46,168.61v36.93a3.17,3.17,0,0,1-3.82,3.09L23.73,204,48.82,237a3.17,3.17,0,0,1-5,3.83L13.55,201a3.16,3.16,0,0,1,3.17-5l26.41,5.61V163.08a3.17,3.17,0,0,1,4.77-2.73Z"/><path class="cls-15" d="M407.93,161.37l-10.8,39.31-14-.4,3.57-43.42Zm-107,0,12.82,33-12.82,6.31-16.83-32.14Zm54.84-15,0,44.3H341.09l-5.35-41.44Z"/></g></g></svg>